<svg width="30" height="42" viewBox="0 0 30 42" fill="none" xmlns="http://www.w3.org/2000/svg">
<path d="M12.7497 17.8535C12.8736 18.7271 13.3035 19.5284 13.9627 20.1148C14.2903 20.3634 14.6637 20.545 15.0615 20.6491C15.4593 20.7533 15.8738 20.7779 16.2812 20.7217C17.2733 20.6449 18.2597 20.5069 19.2348 20.3084C20.4461 20.0957 21.5789 19.5638 22.5162 18.7675C23.0308 18.3378 23.422 17.7793 23.6501 17.1489C23.8782 16.5186 23.935 15.839 23.8146 15.1796C23.3724 12.5263 21.7317 10.7499 19.4345 9.52309C18.1857 8.86935 16.7915 8.54302 15.3823 8.57461C13.5571 8.55988 11.775 9.12837 10.2955 10.1972C8.81605 11.2661 7.71656 12.7795 7.15728 14.5169C6.80973 15.6686 6.70254 16.8794 6.84236 18.0743C6.98217 19.2691 7.36601 20.4225 7.97006 21.4628C8.5335 22.4898 9.22576 23.4459 9.84637 24.4447C10.4595 25.3417 10.7991 26.3974 10.8238 27.4837C10.8706 27.9065 11.0651 28.2993 11.3731 28.5929C11.681 28.8865 12.0826 29.062 12.5072 29.0886H18.2498C18.6638 29.0866 19.0648 28.9435 19.3865 28.6829C19.7082 28.4223 19.9314 28.0598 20.0193 27.6552C20.0262 27.6125 20.0407 27.5622 20.0476 27.4981H21.253C21.2426 27.8828 21.153 28.2611 20.9898 28.6096C20.8266 28.958 20.5933 29.269 20.3045 29.5232C20.1612 29.6665 19.9973 29.7801 19.8409 29.9158C19.5132 30.1938 19.0932 30.3388 18.6638 30.3222C16.4306 30.3009 14.1907 30.3153 11.9576 30.3078C11.7385 30.2998 11.5251 30.236 11.3376 30.1225C10.6214 29.7296 10.0621 29.1024 9.75338 28.3461C9.66573 28.1263 9.61499 27.8936 9.60322 27.6573C9.57393 26.6168 9.21961 25.6117 8.58999 24.7829C7.65314 23.5545 6.87443 22.2132 6.27216 20.7906C5.24515 17.9086 5.20245 15.0411 6.75019 12.3376C7.5242 10.9311 8.63941 9.74193 9.99326 8.87928C11.3471 8.01664 12.8961 7.50825 14.4979 7.40089C15.83 7.24998 17.179 7.37541 18.4605 7.76936C19.742 8.16331 20.9285 8.8173 21.9459 9.69047C23.557 10.9621 24.6559 12.7717 25.0414 14.7876C25.1807 15.5318 25.1599 16.2972 24.9804 17.0327C24.8008 17.7683 24.4665 18.4571 23.9999 19.0534C22.9774 20.3441 21.6648 21.3753 20.1688 22.0635C19.0172 22.7115 17.7353 23.0942 16.4169 23.1835C15.1378 23.2675 13.854 23.2444 12.5789 23.1146C11.6353 22.9578 10.7757 22.4777 10.1474 21.7566C9.51903 21.0355 9.16106 20.1183 9.13483 19.1622C9.00335 17.5659 9.3115 15.9641 10.0258 14.5306C10.7402 13.097 11.8335 11.8865 13.1871 11.0302C13.7447 10.6299 14.3785 10.3482 15.0493 10.2025C15.7201 10.0568 16.4136 10.0501 17.0871 10.183C17.4928 10.2271 17.882 10.3676 18.2225 10.5926C18.5629 10.8176 18.8446 11.1207 19.0442 11.4766C19.2438 11.8326 19.3555 12.231 19.37 12.6389C19.3844 13.0467 19.3012 13.4521 19.1273 13.8212C18.6777 14.8757 17.8389 15.7162 16.7854 16.168C15.6509 16.7314 14.46 17.1668 13.2897 17.6586C13.1133 17.7332 12.933 17.7982 12.7497 17.8535ZM12.6071 16.6977C13.2647 16.5614 13.8938 16.3128 14.4669 15.9627C15.0962 15.643 15.615 15.1416 15.9561 14.5237C16.2973 13.9057 16.4451 13.1996 16.3804 12.4967C16.3988 12.2859 16.3536 12.0744 16.2505 11.8895C16.1475 11.7047 15.9915 11.555 15.8025 11.4598C15.6135 11.3646 15.4004 11.3282 15.1905 11.3554C14.9807 11.3825 14.7838 11.472 14.6253 11.6122C14.5029 11.6858 14.3902 11.7745 14.2898 11.876C12.9639 13.2027 12.6567 14.8861 12.6071 16.6977Z" fill="white" fill-opacity="0.8"/>
<path d="M11.1766 32.345C11.1083 32.3797 11.0331 32.3989 10.9565 32.4012C10.8798 32.4034 10.8036 32.3887 10.7334 32.358C10.6631 32.3273 10.6005 32.2814 10.5501 32.2237C10.4997 32.1659 10.4626 32.0978 10.4417 32.024C10.2383 31.738 9.93074 31.5432 9.5852 31.4818C9.23966 31.4203 8.8838 31.4971 8.59429 31.6954C7.72364 32.345 7.83661 34.0711 8.38765 34.6573C8.53969 34.8077 8.72687 34.9178 8.93223 34.9776C9.13759 35.0373 9.35462 35.0449 9.56363 34.9995C9.77264 34.9542 9.96701 34.8573 10.1291 34.7178C10.2912 34.5783 10.4159 34.4005 10.492 34.2006C10.6345 33.7873 10.8632 33.744 11.2124 33.8369C11.2002 34.2704 11.0329 34.6851 10.7409 35.0057C10.449 35.3264 10.0517 35.5317 9.6213 35.5844C7.70229 35.7628 7.21737 34.2289 7.27454 33.0166C7.28259 32.875 7.30171 32.7343 7.33171 32.5957C7.37395 32.2384 7.51528 31.9001 7.73973 31.6189C7.96419 31.3377 8.26282 31.1249 8.60187 31.0046C8.94941 30.8589 9.33035 30.8119 9.70289 30.8685C10.0754 30.9251 10.4252 31.0832 10.7137 31.3256C10.8594 31.4524 10.9762 31.6091 11.056 31.7849C11.1359 31.9608 11.177 32.1518 11.1766 32.345Z" fill="white" fill-opacity="0.8"/>
<path d="M15.5741 31.0748H18.1709C18.578 31.0748 18.7633 31.2319 18.7778 31.557C18.7844 31.6318 18.7743 31.7071 18.748 31.7774C18.7217 31.8477 18.68 31.9112 18.626 31.9633C18.5719 32.0154 18.5069 32.0546 18.4356 32.0783C18.3644 32.1019 18.2888 32.1092 18.2143 32.0998C17.2796 32.1211 16.338 32.1142 15.4033 32.1142C14.5471 32.1142 13.6985 32.1067 12.8423 32.0998C12.5785 32.0998 12.3498 31.9786 12.3361 31.7003C12.3377 31.5085 12.4028 31.3227 12.5213 31.172C12.5854 31.0865 12.7783 31.0721 12.914 31.0721L15.5741 31.0748Z" fill="white" fill-opacity="0.8"/>
<path d="M5.54768 9.52856C5.5408 9.93496 5.34793 10.2174 5.01248 10.2346C4.72168 10.2542 4.43047 10.2029 4.16388 10.0851C3.62298 9.81449 3.0967 9.5156 2.5872 9.18968C2.3964 9.05367 2.23401 8.88169 2.10917 8.6834C2.01756 8.57801 1.97014 8.44133 1.97682 8.30185C1.98349 8.16236 2.04373 8.03084 2.14499 7.93467C2.35827 7.7839 2.60602 7.68915 2.86548 7.65915C3.03312 7.65426 3.19802 7.70248 3.33662 7.79691C3.91453 8.11789 4.49244 8.44577 5.06277 8.79568C5.19891 8.86696 5.31477 8.97155 5.39957 9.0997C5.48436 9.22786 5.53532 9.3754 5.54768 9.52856Z" fill="white" fill-opacity="0.8"/>
<path d="M25.4667 10.3579C25.2525 10.2154 24.9384 10.1155 24.8605 9.91573C24.8165 9.64865 24.8358 9.37495 24.917 9.11672C24.9253 9.08168 24.9411 9.04887 24.9634 9.02056C24.9856 8.99225 25.0137 8.96912 25.0458 8.95278C25.8166 8.51746 26.5722 8.06078 27.3643 7.67574C27.5148 7.61021 27.6844 7.60396 27.8392 7.65825C27.994 7.71254 28.1226 7.82336 28.1992 7.96848C28.2889 8.0981 28.3295 8.25541 28.3139 8.41228C28.2983 8.56914 28.2273 8.71532 28.1138 8.82467C27.4153 9.46236 26.5953 9.95247 25.7029 10.2656C25.6443 10.2781 25.5844 10.283 25.5245 10.2801C25.4998 10.3016 25.4801 10.3281 25.4667 10.3579Z" fill="white" fill-opacity="0.8"/>
<path d="M20.4067 5.09895C20.444 4.91485 20.5012 4.73538 20.5776 4.56375C20.8772 4.01271 21.1975 3.47957 21.5123 2.92991C21.5267 2.90855 21.5336 2.8872 21.5481 2.86585C21.6566 2.68089 21.8278 2.54101 22.0307 2.47161C22.2336 2.40222 22.4546 2.40793 22.6536 2.4877C22.7407 2.54015 22.8167 2.60925 22.8771 2.69105C22.9375 2.77286 22.9812 2.86576 23.0057 2.96446C23.0302 3.06316 23.035 3.16571 23.0199 3.26627C23.0047 3.36683 22.9699 3.46342 22.9174 3.55052C22.5943 4.22127 22.2198 4.86607 21.7974 5.47918C21.7361 5.58915 21.6477 5.68164 21.5406 5.74786C21.4335 5.81409 21.3113 5.85186 21.1855 5.85758C21.0597 5.86331 20.9346 5.83681 20.8219 5.78059C20.7092 5.72437 20.6128 5.6403 20.5417 5.53635C20.4799 5.39629 20.4346 5.2495 20.4067 5.09895Z" fill="white" fill-opacity="0.8"/>
<path d="M9.25391 5.8435C9.07422 5.85378 8.89544 5.81135 8.73954 5.72141C8.58364 5.63146 8.45741 5.49793 8.37637 5.33723C8.05539 4.8096 7.75645 4.27441 7.45613 3.73232C7.39803 3.63041 7.35707 3.51964 7.3349 3.40444C7.27817 3.23941 7.27903 3.06003 7.33732 2.89554C7.39561 2.73105 7.5079 2.59116 7.65589 2.49867C7.81766 2.41684 8.00358 2.39632 8.17931 2.44088C8.35504 2.48545 8.50872 2.59209 8.61195 2.74112C8.93441 3.19515 9.22751 3.66933 9.48948 4.16075C9.64364 4.42449 9.76815 4.70447 9.86075 4.99558C9.89186 5.09206 9.89994 5.19449 9.88433 5.29465C9.86872 5.39481 9.82985 5.48992 9.77086 5.57236C9.71186 5.65479 9.63437 5.72226 9.5446 5.76935C9.45482 5.81644 9.35527 5.84183 9.25391 5.8435Z" fill="white" fill-opacity="0.8"/>
<path d="M15.4999 33.7508H13.749C13.3563 33.7508 13.1855 33.6075 13.1711 33.2873C13.1568 33.213 13.1601 33.1364 13.1809 33.0637C13.2016 32.9909 13.2392 32.9241 13.2906 32.8686C13.3419 32.8131 13.4056 32.7704 13.4765 32.7441C13.5474 32.7177 13.6235 32.7084 13.6987 32.7169C14.9186 32.7025 16.1453 32.7025 17.3728 32.71C17.5165 32.7164 17.6531 32.775 17.7568 32.8748C17.8605 32.9745 17.9243 33.1087 17.9362 33.2521C17.9306 33.3265 17.9098 33.399 17.8751 33.465C17.8404 33.5311 17.7925 33.5893 17.7344 33.6361C17.6763 33.6829 17.6092 33.7173 17.5373 33.7372C17.4654 33.757 17.3902 33.7619 17.3163 33.7515L15.4999 33.7508Z" fill="white" fill-opacity="0.8"/>
<path d="M28.263 14.8211C28.5627 14.8211 28.8547 14.8142 29.1544 14.8211C29.3514 14.8094 29.5459 14.8694 29.7021 14.9901C29.8582 15.1108 29.9654 15.2839 30.0037 15.4775C30.0082 15.5682 29.9941 15.6588 29.9624 15.7437C29.9306 15.8287 29.8818 15.9063 29.819 15.9718C29.7562 16.0373 29.6806 16.0892 29.597 16.1244C29.5134 16.1597 29.4235 16.1775 29.3328 16.1767C28.6154 16.2325 27.8947 16.2276 27.1782 16.1622C27.0905 16.1589 27.0044 16.1372 26.9256 16.0987C26.8467 16.0601 26.7769 16.0054 26.7204 15.9382C26.664 15.871 26.6222 15.7927 26.5978 15.7084C26.5735 15.6241 26.567 15.5356 26.5789 15.4486C26.6158 15.2732 26.7106 15.1153 26.848 15.0001C26.9854 14.885 27.1574 14.8193 27.3366 14.8135C27.6493 14.8135 27.9565 14.8211 28.263 14.8211Z" fill="white" fill-opacity="0.8"/>
<path d="M2.04432 14.8245C2.32948 14.8245 2.61533 14.8177 2.9005 14.8245C3.09801 14.8193 3.29109 14.8836 3.44615 15.006C3.6012 15.1285 3.7084 15.3014 3.74911 15.4948C3.74802 15.676 3.67554 15.8495 3.54737 15.9777C3.41921 16.1059 3.24569 16.1783 3.06444 16.1794C2.35895 16.2317 1.65038 16.2268 0.945672 16.165C0.855157 16.1676 0.765214 16.1498 0.682567 16.1128C0.59992 16.0758 0.52671 16.0205 0.468414 15.9513C0.410118 15.882 0.368241 15.8004 0.345922 15.7126C0.323602 15.6249 0.321418 15.5332 0.339526 15.4445C0.360573 15.2716 0.445414 15.1129 0.577422 14.9994C0.70943 14.8858 0.879084 14.8257 1.05312 14.8307C1.37411 14.8094 1.70956 14.8307 2.04501 14.8239L2.04432 14.8245Z" fill="white" fill-opacity="0.8"/>
<path d="M14.4242 2.22662C14.46 1.9511 14.4814 1.52059 14.5668 1.11351C14.5969 0.978014 14.6783 0.859402 14.7938 0.782402C14.9093 0.705403 15.05 0.675963 15.1867 0.700227C15.324 0.701006 15.457 0.747875 15.5644 0.833314C15.6718 0.918754 15.7474 1.03781 15.7791 1.17137C15.8279 1.30414 15.8566 1.44342 15.8645 1.58465C15.8576 2.21973 15.8576 2.8617 15.8004 3.49677C15.7872 3.65926 15.7143 3.81111 15.5958 3.92303C15.4772 4.03495 15.3214 4.09904 15.1585 4.10292C14.9962 4.09808 14.8412 4.03476 14.722 3.92463C14.6027 3.81451 14.5273 3.665 14.5096 3.50366C14.4577 3.07987 14.4292 2.65355 14.4242 2.22662Z" fill="white" fill-opacity="0.8"/>
<path d="M23.5066 34.9387H25.7184C25.7253 35.1095 25.7329 35.2528 25.7473 35.4381H22.8984V31.0442H23.5046L23.5066 34.9387Z" fill="white" fill-opacity="0.8"/>
<path d="M22.2966 34.9294V35.4502H19.4787C19.4609 35.3775 19.4489 35.3036 19.4429 35.2291V31.3125C19.4429 30.7918 19.8279 31.1059 20.0779 31.006V34.9322L22.2966 34.9294Z" fill="white" fill-opacity="0.8"/>
<path d="M17.323 40.4381C17.4511 39.9098 17.58 39.389 17.7088 38.8614C17.7866 38.5473 17.7942 38.5473 18.1861 38.6258C18.1172 38.8896 18.0483 39.1466 17.9863 39.4028C17.8486 39.9167 17.7294 40.436 17.5799 40.9437C17.551 41.0504 17.4084 41.2006 17.323 41.1937C17.2557 41.1824 17.192 41.1551 17.1374 41.1141C17.0827 41.0731 17.0387 41.0196 17.0089 40.9581C16.8595 40.5228 16.752 40.0737 16.6239 39.6315C16.5957 39.5172 16.5454 39.4104 16.4813 39.2182C16.3098 39.8381 16.1672 40.374 16.0102 40.9085C15.9675 41.0656 15.9461 41.2226 15.7036 41.2226C15.4612 41.2226 15.4467 41.0587 15.404 40.9085C15.2043 40.1508 15.0114 39.4035 14.8116 38.6355C15.0968 38.4977 15.2539 38.5714 15.311 38.8786C15.4178 39.3994 15.539 39.9118 15.6554 40.4264C15.6837 40.4264 15.7195 40.4333 15.7484 40.4333C15.891 39.9056 16.0336 39.378 16.1906 38.8573C16.2189 38.7574 16.2836 38.6079 16.3621 38.5859C16.5474 38.5356 16.7258 38.5432 16.7899 38.8077C16.918 39.3587 17.0826 39.8919 17.2252 40.4333C17.2576 40.4379 17.2903 40.4396 17.323 40.4381Z" fill="white" fill-opacity="0.8"/>
<path d="M15.487 35.2817C15.0737 35.2817 14.6604 35.2893 14.2472 35.2817C14.1762 35.2864 14.105 35.2767 14.0378 35.2532C13.9706 35.2297 13.9089 35.1929 13.8563 35.145C13.8037 35.0971 13.7613 35.039 13.7317 34.9744C13.702 34.9097 13.6857 34.8397 13.6837 34.7686C13.6924 34.6246 13.7554 34.4893 13.86 34.39C13.9646 34.2906 14.1029 34.2347 14.2472 34.2334C15.1102 34.2265 15.9809 34.2265 16.844 34.2334C16.9155 34.2309 16.9868 34.2433 17.0533 34.2698C17.1198 34.2962 17.1801 34.3362 17.2304 34.3871C17.2806 34.4381 17.3198 34.4989 17.3454 34.5657C17.371 34.6325 17.3825 34.704 17.3792 34.7755C17.3762 34.8466 17.359 34.9165 17.3284 34.9809C17.2979 35.0452 17.2546 35.1028 17.2013 35.15C17.148 35.1973 17.0857 35.2333 17.0181 35.2559C16.9506 35.2786 16.8792 35.2873 16.8081 35.2817H15.487Z" fill="white" fill-opacity="0.8"/>
<path d="M11.7349 39.4194C11.5887 39.3537 11.4556 39.2619 11.3423 39.1487C11.2703 39.0549 11.1787 38.978 11.0739 38.9234C10.9691 38.8687 10.8537 38.8375 10.7356 38.8321C10.6176 38.8266 10.4997 38.847 10.3904 38.8918C10.281 38.9366 10.1827 39.0048 10.1024 39.0915C9.938 39.3108 9.84387 39.5747 9.83243 39.8485C9.821 40.1224 9.89279 40.3932 10.0384 40.6255C10.1455 40.7615 10.2922 40.8611 10.4582 40.9104C10.6242 40.9597 10.8014 40.9564 10.9655 40.901C11.1232 40.8668 11.2613 40.7725 11.3506 40.6381C11.4398 40.5037 11.4732 40.3398 11.4435 40.1812C10.6858 40.0379 10.6858 40.0379 10.7086 39.7885C11.0227 39.7885 11.3436 39.7741 11.6577 39.7961C11.7069 39.8096 11.752 39.8347 11.7893 39.8693C11.8266 39.904 11.855 39.9472 11.872 39.9952C11.8933 40.3878 11.8788 40.7729 11.8788 41.2509C11.7004 41.1655 11.5723 41.1007 11.4511 41.0442C11.3036 41.1577 11.1329 41.2371 10.9511 41.2768C10.7693 41.3165 10.581 41.3155 10.3996 41.2739C10.2183 41.2323 10.0484 41.1511 9.90209 41.0362C9.7558 40.9212 9.63674 40.7753 9.55344 40.6089C9.46023 40.4305 9.40361 40.2353 9.38692 40.0347C9.37022 39.8341 9.39379 39.6322 9.45623 39.4409C9.51867 39.2495 9.61871 39.0725 9.7505 38.9204C9.88229 38.7683 10.0432 38.644 10.2236 38.5549C10.3747 38.4842 10.5396 38.4477 10.7064 38.4481C10.8732 38.4486 11.0379 38.4859 11.1885 38.5575C11.3392 38.629 11.4722 38.733 11.578 38.862C11.6838 38.991 11.7597 39.1418 11.8003 39.3036C11.7813 39.3437 11.7594 39.3824 11.7349 39.4194Z" fill="white" fill-opacity="0.8"/>
<path d="M23.0082 41.1961H22.6087C22.6087 40.8896 22.6018 40.59 22.6087 40.2972C22.6232 40.0617 22.5233 39.9694 22.2953 39.9976H22.2595C21.3103 39.9763 21.3172 39.9763 21.2821 40.9179C21.2752 41.0177 21.1609 41.1176 21.0968 41.2175C21.0279 41.1252 20.8971 41.0253 20.8971 40.9323C20.8826 40.1615 20.8902 39.3915 20.8902 38.6352C21.1753 38.5284 21.2897 38.578 21.2966 38.8563C21.3324 39.6553 21.3393 39.6553 22.1383 39.6553H22.6094C22.6094 39.3846 22.617 39.149 22.6094 38.9134C22.5956 38.6283 22.7024 38.5139 23.0089 38.6138L23.0082 41.1961Z" fill="white" fill-opacity="0.8"/>
<path d="M14.0944 38.5913H14.5442C14.5084 39.2898 14.5152 39.9751 14.4161 40.6529C14.3472 41.1592 13.7961 41.3803 13.1177 41.2873C12.9086 41.2603 12.7173 41.156 12.5813 40.995C12.4453 40.834 12.3744 40.628 12.3827 40.4174C12.3758 39.8105 12.3827 39.212 12.3827 38.5913H12.8049C12.8049 39.1761 12.798 39.754 12.8049 40.3313C12.7995 40.4447 12.8263 40.5573 12.8822 40.6562C12.9381 40.755 13.0209 40.836 13.1209 40.8897C13.2209 40.9435 13.3341 40.9678 13.4474 40.9599C13.5607 40.952 13.6694 40.9122 13.761 40.8451C13.9516 40.6646 14.0664 40.4183 14.082 40.1563C14.1295 39.6493 14.0944 39.1355 14.0944 38.5913Z" fill="white" fill-opacity="0.8"/>
<path d="M20.6159 41.1639C20.2805 41.2851 20.1338 41.1852 20.0738 40.8884C20.0242 40.6383 19.9244 40.4179 19.582 40.4606C19.2604 40.4964 18.8684 40.3318 18.783 40.8526C18.7327 41.1233 18.6122 41.3306 18.2402 41.1735C18.5474 40.3752 18.8471 39.5686 19.1681 38.7696C19.1998 38.7217 19.2419 38.6815 19.2913 38.6519C19.3406 38.6223 19.396 38.6042 19.4532 38.5988C19.5072 38.5998 19.5601 38.614 19.6073 38.6401C19.6545 38.6663 19.6945 38.7037 19.7239 38.7489C20.0387 39.5445 20.3239 40.3504 20.6159 41.1639ZM19.0682 40.0866H19.8031C19.6819 39.7512 19.582 39.4667 19.4746 39.1877C19.4482 39.1862 19.4218 39.1885 19.396 39.1946C19.2893 39.4798 19.1825 39.7587 19.0682 40.0866Z" fill="white" fill-opacity="0.8"/>
<path d="M25.6825 41.1597C25.3381 41.2809 25.2052 41.1742 25.1404 40.8959C25.1046 40.7457 25.0116 40.5109 24.9118 40.4964C24.622 40.4396 24.324 40.4396 24.0342 40.4964C23.9412 40.5178 23.8634 40.7602 23.8276 40.9173C23.7587 41.2024 23.5913 41.2741 23.3062 41.1666C23.6134 40.3538 23.9199 39.5479 24.234 38.7482C24.2628 38.7028 24.3015 38.6645 24.3472 38.6362C24.3929 38.6078 24.4443 38.59 24.4978 38.5843C24.5521 38.5817 24.6063 38.592 24.6558 38.6144C24.7054 38.6368 24.749 38.6706 24.7829 38.7131C25.0908 39.519 25.376 40.3318 25.6825 41.1597ZM24.8752 40.1065C24.7464 39.7621 24.6328 39.4866 24.5253 39.2008C24.4967 39.1997 24.468 39.202 24.4399 39.2076C24.34 39.4928 24.2402 39.7787 24.1258 40.1065H24.8752Z" fill="white" fill-opacity="0.8"/>
<path d="M8.19177 38.5731C8.313 38.8582 8.1773 38.9085 7.96377 38.9175C7.3714 38.9388 7.3714 38.9464 7.3714 39.5374C7.3714 39.9872 7.35694 40.4363 7.37829 40.893C7.39276 41.1926 7.27842 41.278 6.96501 41.1685C6.96501 40.5768 6.95055 39.97 6.9719 39.3707C6.98636 39.0428 6.90784 38.8934 6.54415 38.9071C6.3871 38.914 6.09436 38.7928 6.09436 38.7432C6.11571 38.436 6.37952 38.5862 6.53657 38.5793C7.08624 38.5655 7.6421 38.5731 8.19177 38.5731Z" fill="white" fill-opacity="0.8"/>
<path d="M27.0254 41.1792C26.6686 41.2859 26.5901 41.1502 26.5977 40.872C26.6121 40.3299 26.5901 39.7809 26.6045 39.2388C26.6121 38.9819 26.5122 38.8944 26.2691 38.9178C26.1407 38.9309 26.0111 38.9261 25.8841 38.9034C25.8509 38.8905 25.8216 38.8693 25.799 38.8418C25.7765 38.8142 25.7614 38.7814 25.7552 38.7463C25.7552 38.696 25.8413 38.5968 25.893 38.5968C26.5203 38.5895 27.148 38.5895 27.7762 38.5968C27.8189 38.5968 27.905 38.6823 27.8974 38.725C27.8915 38.7619 27.8784 38.7972 27.8587 38.829C27.8391 38.8608 27.8134 38.8884 27.7831 38.9102C27.7328 38.9461 27.6453 38.9247 27.5764 38.9323C27.0254 38.9537 27.0254 38.9536 27.0254 39.524V41.1792Z" fill="white" fill-opacity="0.8"/>
<path d="M5.34656 38.5913H5.71025V41.195C5.58902 41.2019 5.48225 41.2095 5.34656 41.2164V38.5913Z" fill="white" fill-opacity="0.8"/>
<path d="M28.6225 41.1985H28.2588V38.6086C28.3731 38.6017 28.4875 38.5872 28.6225 38.5727V41.1985Z" fill="white" fill-opacity="0.8"/>
<path d="M4.32039 38.5913H4.74125V40.0461C4.74125 40.3678 4.75572 40.6887 4.73436 41.0022C4.72748 41.071 4.60625 41.1454 4.53461 41.2164C4.46573 41.1475 4.33486 41.0738 4.33486 41.0022C4.31351 40.2128 4.32039 39.4179 4.32039 38.5913Z" fill="white" fill-opacity="0.8"/>
</svg>
